<svg width="28" height="32" viewBox="0 0 28 32" fill="none" xmlns="http://www.w3.org/2000/svg">
<path d="M14 31.1111C14.9634 31.1123 15.9032 30.8134 16.6888 30.2558C17.4744 29.6982 18.0667 28.9098 18.3836 28H9.61644C9.93325 28.9098 10.5256 29.6982 11.3112 30.2558C12.0968 30.8134 13.0366 31.1123 14 31.1111ZM24.8889 19.5782V12.4444C24.8889 7.44022 21.49 3.22467 16.8856 1.95689C16.4298 0.808889 15.316 0 14 0C12.684 0 11.5702 0.808889 11.1144 1.95689C6.51 3.22622 3.11111 7.44022 3.11111 12.4444V19.5782L0.455779 22.2336C0.311046 22.3778 0.196265 22.5492 0.118044 22.7379C0.0398224 22.9267 -0.000294698 23.129 1.62971e-06 23.3333V24.8889C1.62971e-06 25.3014 0.16389 25.6971 0.455613 25.9888C0.747336 26.2806 1.143 26.4444 1.55556 26.4444H26.4444C26.857 26.4444 27.2527 26.2806 27.5444 25.9888C27.8361 25.6971 28 25.3014 28 24.8889V23.3333C28.0003 23.129 27.9602 22.9267 27.882 22.7379C27.8037 22.5492 27.689 22.3778 27.5442 22.2336L24.8889 19.5782Z" fill="white"/>
</svg>
