<svg width="31" height="31" viewBox="0 0 31 31" fill="none" xmlns="http://www.w3.org/2000/svg">
<g clip-path="url(#clip0)">
<path d="M12.5938 2C11.823 2 11.0837 2.30619 10.5387 2.85122C9.99369 3.39625 9.6875 4.13546 9.6875 4.90625V5.875H2.90625C2.13546 5.875 1.39625 6.18119 0.851221 6.72622C0.306193 7.27125 0 8.01046 0 8.78125L0 11.4627L14.7521 15.3959C15.2422 15.5264 15.7578 15.5264 16.2479 15.3959L31 11.4627V8.78125C31 8.01046 30.6938 7.27125 30.1488 6.72622C29.6038 6.18119 28.8645 5.875 28.0938 5.875H21.3125V4.90625C21.3125 4.13546 21.0063 3.39625 20.4613 2.85122C19.9163 2.30619 19.177 2 18.4062 2H12.5938ZM12.5938 3.9375H18.4062C18.6632 3.9375 18.9096 4.03956 19.0913 4.22124C19.2729 4.40292 19.375 4.64932 19.375 4.90625V5.875H11.625V4.90625C11.625 4.64932 11.7271 4.40292 11.9087 4.22124C12.0904 4.03956 12.3368 3.9375 12.5938 3.9375Z" fill="black"/>
<path d="M0 24.2828C0 25.0536 0.306193 25.7928 0.851221 26.3378C1.39625 26.8829 2.13546 27.1891 2.90625 27.1891H28.0938C28.8645 27.1891 29.6038 26.8829 30.1488 26.3378C30.6938 25.7928 31 25.0536 31 24.2828V13.3359L15.7499 17.3989C15.5862 17.4426 15.4138 17.4426 15.2501 17.3989L0 13.3359V24.2828Z" fill="black"/>
</g>
<defs>
<clipPath id="clip0">
<rect width="31" height="31" fill="white"/>
</clipPath>
</defs>
</svg>
