<svg width="26" height="30" viewBox="0 0 26 30" fill="none" xmlns="http://www.w3.org/2000/svg">
<path d="M13 15C8.89688 15 5.57143 11.6426 5.57143 7.5C5.57143 3.35742 8.89688 0 13 0C17.1031 0 20.4286 3.35742 20.4286 7.5C20.4286 11.6426 17.1031 15 13 15ZM7.8 16.875H8.7692C10.0576 17.4727 11.4911 17.8125 13 17.8125C14.5089 17.8125 15.9366 17.4727 17.2308 16.875H18.2C22.5063 16.875 26 20.4023 26 24.75V27.1875C26 28.7402 24.7522 30 23.2143 30H2.78572C1.24777 30 0 28.7402 0 27.1875V24.75C0 20.4023 3.49375 16.875 7.8 16.875Z" fill="white"/>
</svg>
