<svg width="28" height="28" viewBox="0 0 28 28" fill="none" xmlns="http://www.w3.org/2000/svg">
<path d="M20.2202 0.680284C22.1383 0.560408 24.0296 1.22639 25.4549 2.5317C26.7602 3.95689 27.4262 5.84827 27.3196 7.77961V20.2201C27.4395 22.1514 26.7602 24.0428 25.4682 25.468C24.043 26.7733 22.1383 27.4393 20.2202 27.3194H7.77966C5.84831 27.4393 3.95692 26.7733 2.53172 25.468C1.22639 24.0428 0.560407 22.1514 0.680284 20.2201V7.77961C0.560407 5.84827 1.22639 3.95689 2.53172 2.5317C3.95692 1.22639 5.84831 0.560408 7.77966 0.680284H20.2202ZM19.8739 6.76732C19.0481 5.94151 17.7161 5.94151 16.8903 6.76732L15.9979 7.67305C15.8647 7.80624 15.8647 8.03268 15.9979 8.16587C15.9979 8.16587 16.024 8.19185 16.0706 8.23812L16.3982 8.56395C16.5877 8.75251 16.8243 8.98799 17.0618 9.22478L17.8673 10.0298C18.0353 10.1987 18.1468 10.3118 18.1557 10.3236C18.3022 10.4835 18.3954 10.6966 18.3954 10.9363C18.3954 11.4158 18.0092 11.8154 17.5163 11.8154C17.2899 11.8154 17.0768 11.7222 16.9303 11.5757L14.7059 9.36463C14.5993 9.25808 14.4129 9.25808 14.3063 9.36463L7.95282 15.7181C7.51327 16.1576 7.2602 16.7437 7.24688 17.3697L7.16696 20.5264C7.16696 20.6996 7.22024 20.8594 7.34011 20.9793C7.45999 21.0992 7.61983 21.1658 7.79298 21.1658H10.9231C11.5624 21.1658 12.1752 20.9127 12.6413 20.4598L21.6055 11.4691C22.418 10.6433 22.418 9.31135 21.6055 8.49886L19.8739 6.76732Z" fill="#2186F2"/>
</svg>
