<svg width="18" height="19" viewBox="0 0 18 19" fill="none" xmlns="http://www.w3.org/2000/svg">
<path d="M10.4472 17.9053C10.6128 17.8241 10.7523 17.6982 10.8501 17.5418C10.9478 17.3854 10.9998 17.2047 11.0002 17.0203V11.7002C11.0002 11.4382 11.1052 11.1862 11.2932 11.0002L17.4143 4.9461C17.7893 4.5751 18.0003 4.07109 18.0003 3.54608V0.990035C17.9998 0.859329 17.9735 0.73001 17.9229 0.60948C17.8724 0.48895 17.7985 0.379576 17.7056 0.287618C17.6127 0.19566 17.5026 0.122924 17.3816 0.0735737C17.2606 0.0242235 17.131 -0.000771864 17.0003 1.81589e-05H1.00002C0.447008 1.81589e-05 0 0.442026 0 0.990035V3.54608C0 4.07109 0.211004 4.5751 0.58601 4.9461L6.70711 11.0002C6.79986 11.0917 6.87351 11.2007 6.92381 11.3208C6.97411 11.441 7.00005 11.57 7.00012 11.7002V18.0103C7.00012 18.7453 7.78213 19.2233 8.44714 18.8943L10.4472 17.9053Z" fill="#2186F2"/>
</svg>
