<svg width="22" height="24" viewBox="0 0 22 24" fill="none" xmlns="http://www.w3.org/2000/svg">
<path d="M12.5746 0.603754C12.1419 0.215036 11.5808 0 10.9992 0C10.4176 0 9.8565 0.215036 9.42386 0.603754L0.781 8.36975C0.535264 8.59074 0.338744 8.86093 0.204195 9.16278C0.0696459 9.46464 7.56766e-05 9.79141 0 10.1219V21.2083C0 21.8335 0.248341 22.433 0.690391 22.8751C1.13244 23.3171 1.73199 23.5655 2.35714 23.5655H5.5C6.12515 23.5655 6.7247 23.3171 7.16675 22.8751C7.6088 22.433 7.85714 21.8335 7.85714 21.2083V14.9226C7.85714 14.7142 7.93992 14.5144 8.08727 14.367C8.23462 14.2197 8.43447 14.1369 8.64286 14.1369H13.3571C13.5655 14.1369 13.7654 14.2197 13.9127 14.367C14.0601 14.5144 14.1429 14.7142 14.1429 14.9226V21.2083C14.1429 21.8335 14.3912 22.433 14.8332 22.8751C15.2753 23.3171 15.8748 23.5655 16.5 23.5655H19.6429C20.268 23.5655 20.8676 23.3171 21.3096 22.8751C21.7517 22.433 22 21.8335 22 21.2083V10.1219C21.9999 9.79141 21.9304 9.46464 21.7958 9.16278C21.6613 8.86093 21.4647 8.59074 21.219 8.36975L12.5761 0.603754H12.5746Z" fill="#2186F2"/>
</svg>
