<svg width="27" height="28" viewBox="0 0 27 28" fill="none" xmlns="http://www.w3.org/2000/svg">
<path d="M23.0053 23.8577H19.0047V17.3605C19.0047 15.8112 18.978 13.8168 16.924 13.8168C14.8404 13.8168 14.5216 15.5048 14.5216 17.2477V23.8573H10.5211V10.4965H14.3616V12.3224H14.4154C14.7997 11.6408 15.3551 11.0802 16.0224 10.7001C16.6897 10.3201 17.4439 10.1348 18.2046 10.1641C22.2594 10.1641 23.007 12.9299 23.007 16.5282L23.0053 23.8577ZM6.00708 8.67022C4.72489 8.67044 3.68529 7.59266 3.68508 6.26299C3.68487 4.93332 4.72405 3.85521 6.00623 3.85499C7.28842 3.85466 8.32802 4.93244 8.32823 6.26211C8.32835 6.90065 8.08386 7.51308 7.64856 7.96468C7.21327 8.41629 6.62281 8.67008 6.00708 8.67022ZM8.0074 23.8578H4.00264V10.4965H8.00729L8.0074 23.8578ZM24.9997 0.00203786H1.99241C0.905027 -0.0106496 0.0132891 0.892678 0 2.02033V25.9792C0.0128672 27.1075 0.9045 28.0117 1.9923 27.9998H24.9997C26.0898 28.0138 26.9849 27.1096 27 25.9792V2.01847C26.9845 0.888631 26.0893 -0.0145871 24.9997 0.000178488" fill="#0A66C2"/>
</svg>
