<svg width="24" height="30" viewBox="0 0 24 30" fill="none" xmlns="http://www.w3.org/2000/svg">
<path d="M17.2388 0.833496C21.1 0.833496 23.25 3.35516 23.25 7.676V22.3102C23.25 26.7018 21.1 29.1668 17.2388 29.1668H6.7625C2.9625 29.1668 0.75 26.7018 0.75 22.3102V7.676C0.75 3.35516 2.9625 0.833496 6.7625 0.833496H17.2388ZM7.1 20.2985C6.725 20.256 6.3625 20.4543 6.1625 20.8227C5.9625 21.1768 5.9625 21.6443 6.1625 22.0127C6.3625 22.3668 6.725 22.5793 7.1 22.5227H16.9C17.3988 22.466 17.775 21.9829 17.775 21.4177C17.775 20.8368 17.3988 20.3552 16.9 20.2985H7.1ZM16.9 13.8371H7.1C6.56125 13.8371 6.125 14.3343 6.125 14.9435C6.125 15.5527 6.56125 16.0485 7.1 16.0485H16.9C17.4375 16.0485 17.875 15.5527 17.875 14.9435C17.875 14.3343 17.4375 13.8371 16.9 13.8371ZM10.8363 7.421H7.1V7.43516C6.56125 7.43516 6.125 7.931 6.125 8.54016C6.125 9.14933 6.56125 9.64516 7.1 9.64516H10.8363C11.375 9.64516 11.8125 9.14933 11.8125 8.52458C11.8125 7.91683 11.375 7.421 10.8363 7.421Z" fill="white"/>
</svg>
