<svg width="12" height="14" viewBox="0 0 12 14" fill="none" xmlns="http://www.w3.org/2000/svg">
<path d="M11.3334 6.9987C11.3334 6.26336 10.7354 5.66536 10.0001 5.66536H9.33342V3.66536C9.33342 1.82736 7.83808 0.332031 6.00008 0.332031C4.16208 0.332031 2.66675 1.82736 2.66675 3.66536V5.66536H2.00008C1.26475 5.66536 0.666748 6.26336 0.666748 6.9987V12.332C0.666748 13.0674 1.26475 13.6654 2.00008 13.6654H10.0001C10.7354 13.6654 11.3334 13.0674 11.3334 12.332V6.9987ZM4.00008 3.66536C4.00008 2.5627 4.89741 1.66536 6.00008 1.66536C7.10275 1.66536 8.00008 2.5627 8.00008 3.66536V5.66536H4.00008V3.66536Z" fill="black"/>
</svg>
