<svg width="23" height="23" viewBox="0 0 23 23" fill="none" xmlns="http://www.w3.org/2000/svg">
<path d="M15.9486 1.17361C16.3082 0.805034 16.7375 0.511518 17.2114 0.310073C17.6854 0.108627 18.1946 0.00325834 18.7096 7.43821e-05C19.2246 -0.00310958 19.735 0.0959546 20.2114 0.291524C20.6878 0.487094 21.1207 0.77528 21.4849 1.13938C21.8491 1.50347 22.1374 1.93624 22.3331 2.41259C22.5288 2.88893 22.628 3.39939 22.625 3.91436C22.622 4.42934 22.5167 4.93859 22.3154 5.4126C22.1141 5.88661 21.8207 6.31595 21.4523 6.67572L19.4278 8.69863L19.5646 8.83551C19.8604 9.13111 20.095 9.48208 20.255 9.86836C20.4151 10.2546 20.4974 10.6687 20.4974 11.0868C20.4974 11.5049 20.4151 11.919 20.255 12.3053C20.095 12.6915 19.8604 13.0425 19.5646 13.3381L17.2728 15.6284C17.1227 15.7734 16.9216 15.8536 16.713 15.8518C16.5043 15.8499 16.3047 15.7663 16.1572 15.6187C16.0097 15.4712 15.926 15.2716 15.9241 15.0629C15.9223 14.8543 16.0025 14.6532 16.1475 14.5031L18.4394 12.2113C18.7378 11.9128 18.9054 11.508 18.9054 11.086C18.9054 10.664 18.7378 10.2592 18.4394 9.96076L18.3025 9.82388L7.72483 20.4032C7.62242 20.505 7.49423 20.5771 7.35399 20.6117L0.987637 22.2032C0.849391 22.2376 0.704461 22.2342 0.567975 22.1934C0.431489 22.1526 0.308452 22.076 0.211704 21.9714C0.114956 21.8669 0.0480457 21.7383 0.0179563 21.599C-0.0121331 21.4598 -0.00429829 21.315 0.0406429 21.1799L2.03013 15.2114C2.06893 15.0946 2.1343 14.9883 2.22112 14.901L15.9501 1.17361H15.9486Z" fill="#2186F2"/>
</svg>
