<svg width="30" height="30" viewBox="0 0 30 30" fill="none" xmlns="http://www.w3.org/2000/svg">
<path d="M0 5C0 3.67392 0.526784 2.40215 1.46447 1.46447C2.40215 0.526784 3.67392 0 5 0H20C21.3261 0 22.5979 0.526784 23.5355 1.46447C24.4732 2.40215 25 3.67392 25 5V20C25 21.3261 24.4732 22.5979 23.5355 23.5355C22.5979 24.4732 21.3261 25 20 25H5C3.67392 25 2.40215 24.4732 1.46447 23.5355C0.526784 22.5979 0 21.3261 0 20V5ZM11.25 11.25H6.25C5.91848 11.25 5.60054 11.3817 5.36612 11.6161C5.1317 11.8505 5 12.1685 5 12.5C5 12.8315 5.1317 13.1495 5.36612 13.3839C5.60054 13.6183 5.91848 13.75 6.25 13.75H11.25V18.75C11.25 19.0815 11.3817 19.3995 11.6161 19.6339C11.8505 19.8683 12.1685 20 12.5 20C12.8315 20 13.1495 19.8683 13.3839 19.6339C13.6183 19.3995 13.75 19.0815 13.75 18.75V13.75H18.75C19.0815 13.75 19.3995 13.6183 19.6339 13.3839C19.8683 13.1495 20 12.8315 20 12.5C20 12.1685 19.8683 11.8505 19.6339 11.6161C19.3995 11.3817 19.0815 11.25 18.75 11.25H13.75V6.25C13.75 5.91848 13.6183 5.60054 13.3839 5.36612C13.1495 5.1317 12.8315 5 12.5 5C12.1685 5 11.8505 5.1317 11.6161 5.36612C11.3817 5.60054 11.25 5.91848 11.25 6.25V11.25ZM21.25 27.5C22.9076 27.5 24.4973 26.8415 25.6694 25.6694C26.8415 24.4973 27.5 22.9076 27.5 21.25V3.17C28.2601 3.60883 28.8913 4.24 29.3301 5.00007C29.7689 5.76014 30 6.62234 30 7.5V21.25C30 23.5706 29.0781 25.7962 27.4372 27.4372C25.7962 29.0781 23.5706 30 21.25 30H7.5C6.62234 30 5.76014 29.7689 5.00007 29.3301C4.24 28.8913 3.60883 28.2601 3.17 27.5H21.25Z" fill="white"/>
</svg>
