<svg width="27" height="28" viewBox="0 0 27 28" fill="none" xmlns="http://www.w3.org/2000/svg">
<path d="M21.3387 2.97448C24.7681 5.44863 27 9.49524 27 14.0752C27 21.5966 20.9686 27.694 13.5272 27.7105C6.09678 27.727 0.010897 21.6076 9.93536e-06 14.0972C-0.00543361 9.51723 2.22642 5.45963 5.65041 2.97998C6.28731 2.52363 7.1746 2.71607 7.55565 3.40333L8.41573 4.9483C8.7369 5.5256 8.58448 6.25685 8.05646 6.65272C5.79739 8.34614 4.35485 11.0292 4.35485 14.0697C4.3494 19.1444 8.41029 23.312 13.5 23.312C18.4863 23.312 22.6778 19.2324 22.6452 14.0147C22.6288 11.1667 21.3006 8.41761 18.9381 6.64722C18.4101 6.25136 18.2631 5.52011 18.5843 4.9483L19.4444 3.40333C19.8254 2.72157 20.7073 2.51814 21.3387 2.97448ZM15.6774 14.515V1.31955C15.6774 0.588298 15.095 0 14.371 0H12.629C11.905 0 11.3226 0.588298 11.3226 1.31955V14.515C11.3226 15.2463 11.905 15.8346 12.629 15.8346H14.371C15.095 15.8346 15.6774 15.2463 15.6774 14.515Z" fill="white"/>
</svg>
