<svg width="30" height="34" viewBox="0 0 30 34" fill="none" xmlns="http://www.w3.org/2000/svg">
<path d="M20.2387 2.83203C24.1 2.83203 26.25 5.3537 26.25 9.67453V24.3087C26.25 28.7004 24.1 31.1654 20.2387 31.1654H9.7625C5.9625 31.1654 3.75 28.7004 3.75 24.3087V9.67453C3.75 5.3537 5.9625 2.83203 9.7625 2.83203H20.2387ZM10.1 22.297C9.725 22.2545 9.3625 22.4529 9.1625 22.8212C8.9625 23.1754 8.9625 23.6429 9.1625 24.0112C9.3625 24.3654 9.725 24.5779 10.1 24.5212H19.9C20.3988 24.4645 20.775 23.9814 20.775 23.4162C20.775 22.8354 20.3988 22.3537 19.9 22.297H10.1ZM19.9 15.8356H10.1C9.56125 15.8356 9.125 16.3329 9.125 16.942C9.125 17.5512 9.56125 18.047 10.1 18.047H19.9C20.4375 18.047 20.875 17.5512 20.875 16.942C20.875 16.3329 20.4375 15.8356 19.9 15.8356ZM13.8363 9.41953H10.1V9.4337C9.56125 9.4337 9.125 9.92953 9.125 10.5387C9.125 11.1479 9.56125 11.6437 10.1 11.6437H13.8363C14.375 11.6437 14.8125 11.1479 14.8125 10.5231C14.8125 9.91536 14.375 9.41953 13.8363 9.41953Z" fill="white"/>
<path d="M23.1437 18.4952L24.0655 19.3251C24.4436 19.6602 24.6956 20.1018 24.7818 20.5663C24.8813 21.0772 24.7752 21.579 24.4767 22.013L18.9852 30.0614C18.7332 30.4269 18.3618 30.6325 17.9639 30.6401L15.7752 30.6706C15.6559 30.6706 15.5564 30.5792 15.5299 30.4498L15.0324 28.0055C14.9462 27.5563 15.0324 27.0918 15.2845 26.7339L19.1776 21.0231C19.2439 20.9318 19.3633 20.9173 19.4429 20.9851L21.081 22.4623C21.1872 22.5613 21.3331 22.6146 21.4856 22.5917C21.8106 22.546 22.0294 22.211 21.9963 21.8531C21.9764 21.6704 21.8968 21.5181 21.7907 21.4039C21.7575 21.3734 20.1989 19.9571 20.1989 19.9571C20.0995 19.8658 20.0796 19.6982 20.1592 19.5848L20.776 18.6779C21.3463 17.8479 22.3412 17.7718 23.1437 18.4952Z" fill="#2186F2"/>
</svg>
