<svg width="24" height="26" viewBox="0 0 24 26" fill="none" xmlns="http://www.w3.org/2000/svg">
<path d="M0 12.7059C0 15.0409 1.90024 16.9412 4.23529 16.9412C5.35624 16.9412 6.36988 16.4965 7.128 15.7835L15.5859 20.6174C15.5605 20.8009 15.5294 20.9845 15.5294 21.1765C15.5294 23.5115 17.4296 25.4118 19.7647 25.4118C22.0998 25.4118 24 23.5115 24 21.1765C24 18.8414 22.0998 16.9412 19.7647 16.9412C18.6438 16.9412 17.6301 17.3859 16.872 18.0988L8.41412 13.2664C8.43953 13.0814 8.47059 12.8979 8.47059 12.7059C8.47059 12.5139 8.43953 12.3304 8.41412 12.1454L16.872 7.31294C17.6301 8.02588 18.6438 8.47059 19.7647 8.47059C22.0998 8.47059 24 6.57035 24 4.2353C24 1.90024 22.0998 0 19.7647 0C17.4296 0 15.5294 1.90024 15.5294 4.2353C15.5294 4.4273 15.5605 4.61082 15.5859 4.79577L7.128 9.62824C6.3473 8.88661 5.3121 8.47232 4.23529 8.47059C1.90024 8.47059 0 10.3708 0 12.7059Z" fill="#2186F2"/>
</svg>
