<svg width="32" height="27" viewBox="0 0 32 27" fill="none" xmlns="http://www.w3.org/2000/svg">
<path d="M31.53 19.2428L27.015 14.4861C26.415 13.8533 25.6 13.5 24.75 13.5H20.785C19.9 13.5 19.185 14.2541 19.185 15.1875V19.3641C19.185 20.2605 19.52 21.1148 20.12 21.7477L24.635 26.5043C25.26 27.1635 26.275 27.1635 26.9 26.5043L31.525 21.6264C32.155 20.9672 32.155 19.902 31.53 19.2428ZM22.39 18.1354C21.725 18.1354 21.19 17.5711 21.19 16.8697C21.19 16.1684 21.725 15.6041 22.39 15.6041C23.055 15.6041 23.59 16.1684 23.59 16.8697C23.59 17.5658 23.055 18.1354 22.39 18.1354ZM11.2 13.4947C14.735 13.4947 17.6 10.473 17.6 6.74473C17.6 3.02168 14.735 0 11.2 0C7.665 0 4.8 3.02168 4.8 6.75C4.8 10.473 7.665 13.4947 11.2 13.4947ZM17.59 19.3588V15.5039C16.98 15.3141 16.345 15.177 15.68 15.177H14.845C13.735 15.7148 12.5 16.0207 11.2 16.0207C9.9 16.0207 8.67 15.7148 7.555 15.177H6.72C3.01 15.1822 0 18.3568 0 22.2697V24.4635C0 25.8609 1.075 26.9947 2.4 26.9947H20C20.775 26.9947 21.455 26.5992 21.895 25.998L18.995 22.9395C18.09 21.985 17.59 20.7141 17.59 19.3588Z" fill="black"/>
</svg>
